<?xml version="1.0" encoding="UTF-8" standalone="no"?>
<!-- Created with Inkscape (http://www.inkscape.org/) -->

<svg
   xmlns:dc="http://purl.org/dc/elements/1.1/"
   xmlns:cc="http://creativecommons.org/ns#"
   xmlns:rdf="http://www.w3.org/1999/02/22-rdf-syntax-ns#"
   xmlns:svg="http://www.w3.org/2000/svg"
   xmlns="http://www.w3.org/2000/svg"
   xmlns:sodipodi="http://sodipodi.sourceforge.net/DTD/sodipodi-0.dtd"
   xmlns:inkscape="http://www.inkscape.org/namespaces/inkscape"
   width="744.09448819"
   height="1052.3622047"
   id="svg2"
   version="1.1"
   inkscape:version="0.48.4 r9939"
   sodipodi:docname="capitalize.svg"
   inkscape:export-filename="/usr/local/src/capitalize/doc/capitalize.png"
   inkscape:export-xdpi="72"
   inkscape:export-ydpi="72">
  <defs
     id="defs4">
    <filter
       id="filter2993"
       inkscape:label="Colorize"
       inkscape:menu="Color"
       inkscape:menu-tooltip="Blend image or object with a flood color and set lightness and contrast"
       x="0"
       y="0"
       width="1"
       height="1"
       color-interpolation-filters="sRGB">
      <feColorMatrix
         id="feColorMatrix2995"
         values="1"
         in="SourceGraphic"
         type="saturate"
         result="result2" />
      <feFlood
         id="feFlood2997"
         flood-color="rgb(254,102,0)"
         flood-opacity="1"
         result="result1" />
      <feBlend
         id="feBlend2999"
         in2="result2"
         mode="multiply"
         in="result1"
         result="result3" />
      <feComposite
         id="feComposite3001"
         in2="SourceGraphic"
         operator="in"
         k2="1"
         result="result4" />
    </filter>
    <filter
       id="filter3095"
       inkscape:menu-tooltip="Like Light eraser but converts to negative"
       inkscape:menu="Transparency utilities"
       inkscape:label="Light eraser, negative"
       height="1"
       width="1"
       y="0"
       x="0"
       color-interpolation-filters="sRGB">
      <feColorMatrix
         id="feColorMatrix3097"
         result="result14"
         type="luminanceToAlpha"
         in="SourceGraphic" />
      <feComposite
         id="feComposite3099"
         in2="result14"
         in="SourceGraphic"
         result="fbSourceGraphic"
         operator="out" />
      <feBlend
         id="feBlend3101"
         in2="fbSourceGraphic"
         mode="normal"
         result="fbSourceGraphic" />
      <feColorMatrix
         result="fbSourceGraphicAlpha"
         in="fbSourceGraphic"
         values="0 0 0 -1 0 0 0 0 -1 0 0 0 0 -1 0 0 0 0 1 0"
         id="feColorMatrix3113" />
      <feColorMatrix
         id="feColorMatrix3115"
         in="fbSourceGraphic"
         values="-1 0 0 0 1 0 -1 0 0 1 0 0 -1 0 1 0 0 0 1 0 "
         result="fbSourceGraphic" />
      <feColorMatrix
         id="feColorMatrix3117"
         result="result14"
         type="luminanceToAlpha"
         in="fbSourceGraphic" />
      <feComposite
         id="feComposite3119"
         in2="result14"
         in="fbSourceGraphic"
         result="fbSourceGraphic"
         operator="out" />
      <feBlend
         id="feBlend3121"
         in2="fbSourceGraphic"
         mode="normal"
         result="result15" />
    </filter>
    <filter
       id="filter2993-8"
       inkscape:label="Colorize"
       inkscape:menu="Color"
       inkscape:menu-tooltip="Blend image or object with a flood color and set lightness and contrast"
       x="0"
       y="0"
       width="1"
       height="1"
       color-interpolation-filters="sRGB">
      <feColorMatrix
         id="feColorMatrix2995-7"
         values="1"
         in="SourceGraphic"
         type="saturate"
         result="result2" />
      <feFlood
         id="feFlood2997-1"
         flood-color="rgb(254,102,0)"
         flood-opacity="1"
         result="result1" />
      <feBlend
         id="feBlend2999-6"
         in2="result2"
         mode="multiply"
         in="result1"
         result="result3" />
      <feComposite
         id="feComposite3001-5"
         in2="SourceGraphic"
         operator="in"
         result="result4" />
    </filter>
  </defs>
  <sodipodi:namedview
     id="base"
     pagecolor="#ffffff"
     bordercolor="#666666"
     borderopacity="1.0"
     inkscape:pageopacity="0.0"
     inkscape:pageshadow="2"
     inkscape:zoom="6.759454"
     inkscape:cx="297.05678"
     inkscape:cy="865.49877"
     inkscape:document-units="px"
     inkscape:current-layer="layer1"
     showgrid="false"
     inkscape:window-width="1920"
     inkscape:window-height="1029"
     inkscape:window-x="0"
     inkscape:window-y="0"
     inkscape:window-maximized="1"
     showguides="true"
     inkscape:guide-bbox="true" />
  <metadata
     id="metadata7">
    <rdf:RDF>
      <cc:Work
         rdf:about="">
        <dc:format>image/svg+xml</dc:format>
        <dc:type
           rdf:resource="http://purl.org/dc/dcmitype/StillImage" />
        <dc:title></dc:title>
      </cc:Work>
    </rdf:RDF>
  </metadata>
  <g
     inkscape:label="Layer 1"
     inkscape:groupmode="layer"
     id="layer1">
    <text
       xml:space="preserve"
       style="font-size:40px;font-style:normal;font-variant:normal;font-weight:normal;font-stretch:normal;line-height:125%;letter-spacing:0px;word-spacing:0px;fill:#000000;fill-opacity:1;stroke:none;font-family:Bitstream Charter;-inkscape-font-specification:Bitstream Charter"
       x="315.39362"
       y="282.88177"
       id="text3010"
       sodipodi:linespacing="125%"><tspan
         sodipodi:role="line"
         id="tspan3012"
         x="315.39362"
         y="282.88177" /></text>
    <g
       id="g3906"
       transform="translate(-48.342573,-72.013764)">
      <rect
         rx="32.324883"
         ry="33.335033"
         y="225.54214"
         x="240.34349"
         height="66.670067"
         width="210.11172"
         id="rect2985-4"
         style="fill:#ff7d00;fill-opacity:0.96982757;fill-rule:evenodd;stroke:#000000;stroke-width:1px;stroke-linecap:butt;stroke-linejoin:miter;stroke-opacity:1" />
      <path
         inkscape:connector-curvature="0"
         d="m 266.02324,239.64535 c 0.14308,-0.0842 0.29874,-0.13877 0.45254,-0.20149 0.21875,-0.0567 0.43884,-0.11381 0.66101,-0.16106 0.28443,-0.0687 0.57363,-0.11552 0.86325,-0.15745 0.3967,-0.0429 0.7964,-0.0233 1.19457,-0.0345 0.47516,-0.007 0.9497,-0.0274 1.42499,-0.0242 0.52453,0.0108 1.04861,0.0421 1.56961,0.1024 0.57036,0.0742 1.14106,0.15406 1.707,0.25614 0.59216,0.12509 1.18206,0.263 1.76355,0.42961 0.59829,0.15056 1.16908,0.37487 1.73858,0.60526 0.57903,0.25148 1.13665,0.54514 1.6799,0.86319 0.53715,0.31393 1.05318,0.66125 1.5667,1.01061 0.5235,0.35091 1.01285,0.74663 1.49072,1.15429 0.48251,0.41644 0.94921,0.84939 1.40665,1.29196 0.46553,0.44585 0.91075,0.91107 1.3555,1.37659 0.45036,0.46926 0.8879,0.94967 1.31582,1.43856 0.4253,0.49034 0.84357,0.98647 1.26079,1.48343 0.41417,0.49831 0.82065,1.00273 1.22412,1.50938 0.41028,0.51102 0.82699,1.01703 1.23671,1.52848 0.41422,0.5286 0.84826,1.04173 1.27328,1.5619 0.44314,0.54537 0.90429,1.07627 1.37181,1.60165 0.47545,0.54271 0.9738,1.06493 1.48996,1.57052 0.52174,0.51233 1.0707,0.9966 1.62878,1.47043 0.5672,0.47982 1.15757,0.93191 1.76392,1.36309 0.60587,0.43842 1.24367,0.83103 1.8865,1.21465 0.65559,0.38806 1.32456,0.75428 2.00374,1.1011 0.68509,0.35412 1.38073,0.68735 2.08103,1.01143 0.69269,0.31897 1.40016,0.60499 2.11319,0.87703 0.71897,0.2646 1.44322,0.51554 2.17359,0.74829 0.73388,0.24199 1.48211,0.43828 2.23419,0.6174 0.77426,0.184 1.55425,0.34069 2.3358,0.49139 0.80473,0.15139 1.6156,0.2665 2.42666,0.37926 0.84664,0.12246 1.69708,0.21569 2.54925,0.29166 0.87838,0.0734 1.75887,0.11813 2.63904,0.16466 0.88738,0.0523 1.77617,0.0383 2.66442,0.0298 0.9001,-0.007 1.79871,-0.0606 2.69653,-0.11953 0.90912,-0.056 1.81463,-0.1504 2.71874,-0.25716 0.91638,-0.10164 1.8259,-0.25072 2.73345,-0.40928 0.92043,-0.14997 1.82894,-0.3585 2.73795,-0.5626 0.91985,-0.21623 1.83374,-0.45703 2.74167,-0.71696 0.91117,-0.25986 1.81617,-0.53991 2.71712,-0.83177 0.88631,-0.29284 1.76604,-0.6058 2.63841,-0.93646 0.86294,-0.32626 1.71395,-0.68081 2.56144,-1.04344 6.00365,-2.677 14.05731,-6.40949 -13.98554,6.39301 0.83698,-0.37808 1.66544,-0.77382 2.49113,-1.17486 0.81008,-0.40063 1.61791,-0.80599 2.41453,-1.23179 0.79898,-0.42202 1.58629,-0.86455 2.37798,-1.29939 0.79846,-0.45062 1.60128,-0.89379 2.39916,-1.34539 0.80992,-0.46263 1.6262,-0.91434 2.44446,-1.36267 0.83357,-0.4589 1.67328,-0.90698 2.51206,-1.35666 0.84411,-0.4535 1.69068,-0.90233 2.54288,-1.34113 0.84731,-0.43921 1.69548,-0.87682 2.54337,-1.31497 0.84752,-0.44375 1.69571,-0.88628 2.54589,-1.32513 0.84719,-0.44306 1.69463,-0.88559 2.53987,-1.33222 0.85081,-0.452 1.70361,-0.90044 2.5578,-1.34629 0.8605,-0.45322 1.72057,-0.9072 2.58417,-1.35474 0.87179,-0.45549 1.75555,-0.88824 2.64389,-1.31179 6.34892,-2.98533 12.7158,-5.93833 19.15856,-8.7246 0.89292,-0.39038 1.79871,-0.75151 2.71183,-1.09387 0.91802,-0.349 1.85114,-0.65658 2.78696,-0.95597 0.94098,-0.2996 1.88856,-0.57675 2.84428,-0.82736 0.96493,-0.2498 1.94109,-0.45404 2.91514,-0.66602 0.97408,-0.20603 1.95399,-0.3838 2.93992,-0.52559 0.98133,-0.14194 1.96693,-0.2548 2.95509,-0.33938 0.98944,-0.0988 1.98335,-0.13016 2.97707,-0.14957 1.015,-0.002 2.03033,0.0298 3.04384,0.0829 1.00221,0.0414 2.00232,0.12096 2.99984,0.22289 0.98956,0.11181 1.97722,0.23931 2.96071,0.39416 0.97827,0.15132 1.94382,0.36551 2.91027,0.57468 0.96179,0.21878 1.91491,0.4731 2.86285,0.74321 0.94387,0.27341 1.87792,0.57677 2.81173,0.88092 0.92223,0.31002 1.83834,0.63674 2.74424,0.98988 0.90005,0.34986 1.79379,0.71445 2.676,1.10544 0.88528,0.38522 1.74884,0.81472 2.60445,1.25885 0.87063,0.45064 1.71529,0.94643 2.55866,1.4436 0.85598,0.51597 1.6948,1.05812 2.52178,1.61736 0.84327,0.56698 1.66361,1.16592 2.47843,1.77118 0.81316,0.6105 1.61759,1.23206 2.41311,1.86438 0.78456,0.62144 1.55721,1.25699 2.33112,1.89099 0.63173,0.52325 1.26079,1.04959 1.88589,1.58039 0,0 -16.34082,8.29712 -16.34082,8.29712 l 0,0 c -0.61947,-0.52301 -1.241,-1.04372 -1.86797,-1.55812 -0.76345,-0.62761 -1.5301,-1.25162 -2.30831,-1.86166 -0.78592,-0.61315 -1.57402,-1.224 -2.38136,-1.81007 -0.80237,-0.58027 -1.61152,-1.15164 -2.4434,-1.69102 -0.81302,-0.52621 -1.63511,-1.03948 -2.47792,-1.51905 -0.82416,-0.47076 -1.65659,-0.92802 -2.51086,-1.34481 -0.83968,-0.40854 -1.68847,-0.79895 -2.55101,-1.15933 -0.87084,-0.35936 -1.7466,-0.70755 -2.63128,-1.03314 -0.89345,-0.32063 -1.79093,-0.63111 -2.69722,-0.91545 -0.91587,-0.28978 -1.83682,-0.56512 -2.76683,-0.80833 -0.93042,-0.23848 -1.86344,-0.4679 -2.80755,-0.64942 -0.94367,-0.18901 -1.89296,-0.35048 -2.84809,-0.47361 -0.96521,-0.12229 -1.93157,-0.24024 -2.90264,-0.30839 -0.98105,-0.0675 -1.96285,-0.12258 -2.94615,-0.14682 -0.99205,-0.0177 -1.98504,-0.0287 -2.97586,0.0351 -0.97394,0.0559 -1.94573,0.14074 -2.91419,0.25694 -0.96685,0.12248 -1.93271,0.25459 -2.89092,0.43212 -0.96435,0.18579 -1.92664,0.38218 -2.88168,0.60999 -0.96104,0.2243 -1.91859,0.46383 -2.86259,0.75027 -0.9372,0.28458 -1.87069,0.58158 -2.79558,0.90265 -0.92024,0.32412 -1.83354,0.6672 -2.73577,1.03691 -0.89616,0.3721 -1.7876,0.75464 -2.67253,1.15177 -8.37166,3.73836 21.4717,-9.76755 13.80667,-6.31442 -0.89051,0.40802 -1.78111,0.81634 -2.65803,1.25188 -0.86779,0.43392 -1.73169,0.87532 -2.588,1.33065 -0.84982,0.45029 -1.70324,0.89399 -2.55558,1.33967 -0.84489,0.44905 -1.68784,0.9017 -2.53839,1.34039 -0.84419,0.44921 -1.69582,0.8848 -2.54408,1.32657 -0.84449,0.44671 -1.69377,0.88459 -2.54289,1.32281 -0.84852,0.44134 -1.70607,0.86602 -2.54739,1.32058 -0.83906,0.44324 -1.67644,0.88949 -2.51228,1.33849 -0.81636,0.4418 -1.63348,0.88237 -2.44378,1.33474 -0.79825,0.44795 -1.5914,0.90466 -2.39326,1.34646 -0.78464,0.45055 -1.57822,0.88625 -2.36823,1.32767 -0.79734,0.43556 -1.58948,0.88013 -2.40192,1.28866 -0.81969,0.42159 -1.64522,0.83208 -2.47776,1.22886 -6.31465,2.88474 -12.59461,5.98226 -19.04714,8.62172 -0.86092,0.34113 -1.72787,0.66805 -2.60365,0.9709 -0.88919,0.30305 -1.77963,0.60287 -2.68218,0.86608 -0.91384,0.27033 -1.82974,0.53436 -2.75393,0.76906 -0.92857,0.23077 -1.85864,0.45638 -2.79858,0.63925 -0.92699,0.18554 -1.85836,0.34751 -2.79439,0.48324 -0.92814,0.13124 -1.85903,0.24251 -2.79292,0.32695 -0.9223,0.0801 -1.84634,0.14069 -2.77145,0.17988 -0.91746,0.0346 -1.83541,0.0519 -2.75359,0.0375 -0.90835,-0.0128 -1.81573,-0.0542 -2.72185,-0.11817 -0.89739,-0.0587 -1.79434,-0.12705 -2.6875,-0.23224 -0.86977,-0.10337 -1.73796,-0.21907 -2.60322,-0.3542 -0.83291,-0.13169 -1.66327,-0.2798 -2.48716,-0.45833 -0.80297,-0.17194 -1.6031,-0.35852 -2.39502,-0.5745 -0.77458,-0.21966 -1.54308,-0.45878 -2.30237,-0.72511 -0.74857,-0.2645 -1.49625,-0.5325 -2.22819,-0.83911 -0.73114,-0.3075 -1.45669,-0.6276 -2.16794,-0.97738 -0.71398,-0.34802 -1.42254,-0.70691 -2.12107,-1.08388 -0.69754,-0.38484 -1.3906,-0.77782 -2.06407,-1.20219 -0.66958,-0.42568 -1.32737,-0.86919 -1.95949,-1.34708 -0.62703,-0.47745 -1.2429,-0.96898 -1.83484,-1.48788 -0.58005,-0.51147 -1.15023,-1.03383 -1.69268,-1.58374 -0.53119,-0.54046 -1.04425,-1.09711 -1.54509,-1.66468 -0.48102,-0.54315 -0.95406,-1.09298 -1.41579,-1.65198 -0.43581,-0.52182 -0.86987,-1.04498 -1.293,-1.57674 -0.41411,-0.51083 -0.83352,-1.0175 -1.24562,-1.52989 -0.39747,-0.49311 -0.79699,-0.98469 -1.20528,-1.4693 -0.40876,-0.48399 -0.81707,-0.96845 -1.23943,-1.44121 -0.41876,-0.46497 -0.84765,-0.92104 -1.28363,-1.3706 -0.43039,-0.44209 -0.8669,-0.87846 -1.32024,-1.29819 -0.43831,-0.40297 -0.88241,-0.80059 -1.35035,-1.17068 -0.45349,-0.35049 -0.92054,-0.68315 -1.40633,-0.98977 -0.48314,-0.3077 -0.97171,-0.60796 -1.48688,-0.86243 -0.50305,-0.24184 -1.01562,-0.46771 -1.55103,-0.63278 -0.53762,-0.17217 -1.08738,-0.30394 -1.63847,-0.42801 -0.55426,-0.11015 -1.10944,-0.22069 -1.67369,-0.26961 -0.54516,-0.0553 -1.09015,-0.1177 -1.63936,-0.11377 -0.49949,0.003 -0.99928,0.007 -1.49741,0.0477 -0.4623,0.0333 -0.92637,0.057 -1.38519,0.12408 -0.37125,0.0563 -0.73168,0.15178 -1.08037,0.29022 -0.26935,0.0929 -0.53588,0.19316 -0.79659,0.30746 -0.20236,0.0955 -0.4055,0.18804 -0.59432,0.3066 -0.14953,0.0682 -0.29262,0.14842 -0.45165,0.19368 0,0 15.5425,-10.21012 15.5425,-10.21012 z"
         id="path3904"
         style="opacity:0.51599995;fill:#ff0000;fill-opacity:0.98706863;stroke:#4244e7;stroke-width:1.09370375;stroke-linejoin:round;stroke-miterlimit:4;stroke-opacity:1;stroke-dasharray:1.09370362, 1.09370362;stroke-dashoffset:0" />
      <text
         transform="scale(0.95010602,1.0525141)"
         sodipodi:linespacing="125%"
         id="text2989-3"
         y="262.22525"
         x="262.31586"
         style="font-size:48.14706421px;font-style:normal;font-weight:normal;line-height:125%;letter-spacing:0px;word-spacing:0px;fill:#514ed0;fill-opacity:1;stroke:none;font-family:Sans"
         xml:space="preserve"><tspan
           style="font-style:italic;fill:#514ed0;fill-opacity:1;-inkscape-font-specification:Sans Italic"
           y="262.22525"
           x="262.31586"
           id="tspan2991-9"
           sodipodi:role="line">C</tspan></text>
      <text
         transform="scale(1.0761139,0.92926967)"
         sodipodi:linespacing="125%"
         id="text2989"
         y="290.09845"
         x="258.54947"
         style="font-size:36.37159348px;font-style:normal;font-weight:normal;line-height:125%;letter-spacing:0px;word-spacing:0px;fill:#e8eb12;fill-opacity:1;stroke:none;font-family:Sans"
         xml:space="preserve"><tspan
           style="font-style:italic;fill:#e8eb12;fill-opacity:1;-inkscape-font-specification:Sans Italic"
           y="290.09845"
           x="258.54947"
           id="tspan2991"
           sodipodi:role="line">apitalize</tspan></text>
    </g>
  </g>
</svg>
